<?xml version="1.0" encoding="UTF-8"?>
<svg version="1.1" xmlns="http://www.w3.org/2000/svg" width="512" height="512">
<path d="M0 0 C1.18510842 0.72050617 2.35447474 1.46809016 3.5 2.25 C4.386875 2.78625 5.27375 3.3225 6.1875 3.875 C12.71253538 10.57638769 14.05411741 17.51517277 13.96875 26.66015625 C13.54707809 29.88946028 12.86212882 31.75866633 11.5859375 34.671875 C10.61719258 37.42801842 10.22989135 38.61734981 11.38964844 41.33374023 C13.00753544 43.52434231 14.74461467 45.46765018 16.625 47.4375 C17.95074657 48.92833026 19.27494789 50.42053599 20.59765625 51.9140625 C21.26297363 52.64657227 21.92829102 53.37908203 22.61376953 54.13378906 C25.2439248 57.08462855 27.65872413 60.1768052 30.0625 63.3125 C34.729702 69.31932935 39.51890362 75.22212509 44.34985352 81.09790039 C44.87635498 81.74106201 45.40285645 82.38422363 45.9453125 83.046875 C46.41469238 83.61760742 46.88407227 84.18833984 47.36767578 84.77636719 C48.5 86.25 48.5 86.25 49.5 88.25 C50.73363281 88.08951172 50.73363281 88.08951172 51.9921875 87.92578125 C61.64012945 86.88968587 69.11161133 87.1896163 76.875 93.4375 C82.26189346 98.62850642 85.06858759 104.40623914 85.59765625 111.890625 C85.28353885 119.47970136 82.2832696 125.51007648 77.5 131.25 C76.51 131.91 75.52 132.57 74.5 133.25 C75.16779639 135.71605221 75.8395107 138.18096421 76.51464844 140.64501953 C77.22702444 143.25129904 77.93255617 145.85899746 78.63378906 148.46826172 C79.69681662 152.40318424 80.80428133 156.32402483 81.93164062 160.2409668 C82.39638441 161.88082506 82.8477679 163.52452488 83.28613281 165.17163086 C85.40659629 174.59144308 85.40659629 174.59144308 90.78833008 182.14916992 C93.14707918 183.24585556 93.14707918 183.24585556 95.49975586 183.75439453 C98.69218858 184.54539153 99.84751859 186.53993049 101.5 189.25 C104.35959536 194.01599227 103.65891412 199.00969266 102.5 204.25 C99.68470156 209.78005051 99.68470156 209.78005051 95.91015625 211.27734375 C93.36117276 212.96303615 93.36117276 212.96303615 93.00244141 215.2409668 C92.77025535 217.96144054 92.70218599 220.64453565 92.6875 223.375 C92.66743896 224.38022705 92.64737793 225.3854541 92.62670898 226.42114258 C92.58842625 228.57210187 92.561214 230.72328108 92.54394531 232.87451172 C92.49912426 236.31726679 92.37653398 239.75107311 92.2421875 243.19140625 C92.17998437 245.44004153 92.12002948 247.6887403 92.0625 249.9375 C92.01569092 251.00564941 91.96888184 252.07379883 91.9206543 253.17431641 C91.88176838 255.99183988 91.89702549 258.49706099 92.5 261.25 C95.23122058 263.91775341 95.23122058 263.91775341 98.5 265.25 C102.64368039 269.62388485 104.25916277 273.64895787 104.8125 279.625 C104.2510763 286.13751487 102.65588406 290.5345894 97.875 295.125 C94.81822006 297.65824305 92.7342647 298.56788569 88.8125 299 C86.6100288 299.27826781 86.6100288 299.27826781 84.5 300.25 C83.10060309 302.25192 83.10060309 302.25192 82.12890625 304.8359375 C81.71116943 305.83044922 81.29343262 306.82496094 80.86303711 307.84960938 C80.18833374 309.53280273 80.18833374 309.53280273 79.5 311.25 C78.9884923 312.49316006 78.476175 313.73598725 77.96313477 314.97851562 C76.59147226 318.32375623 75.25843422 321.68290748 73.94091797 325.04980469 C73.39187182 326.44624164 72.83707156 327.84042842 72.27685547 329.23242188 C71.45591839 331.27264304 70.65196031 333.3188356 69.8515625 335.3671875 C69.37541504 336.56972168 68.89926758 337.77225586 68.40869141 339.01123047 C67.46938938 342.35910277 67.42240402 343.99064907 68.5 347.25 C69.84608431 349.63426627 69.84608431 349.63426627 71.5 351.875 C75.96872197 358.16988239 76.14332167 363.66258851 75.5 371.25 C73.72316381 378.95762724 68.77387098 383.73237107 62.5 388.25 C57.29387146 390.96624098 51.26153508 390.8785311 45.5 390.25 C43.98244525 389.60216991 42.4806009 388.91583868 41 388.1875 C38.82293227 387.25950607 38.82293227 387.25950607 36.5 387.25 C32.88600567 389.21660575 30.07080515 391.88990313 27.11425781 394.72900391 C24.72102771 396.98396814 22.21976117 399.10701273 19.72314453 401.24609375 C17.23395463 403.37986109 14.76178526 405.5320764 12.3059082 407.70410156 C11.06732843 408.76435397 9.79487642 409.78591111 8.49682617 410.77246094 C4.55388941 413.70553379 4.55388941 413.70553379 2.95703125 418.1796875 C3.07433594 419.15164063 3.19164062 420.12359375 3.3125 421.125 C3.64833753 426.89140179 3.01326521 430.60516164 -0.5 435.25 C-4.00353653 438.91278819 -7.91705741 441.90507288 -13.015625 442.5859375 C-20.25966934 442.68942385 -25.55148281 441.75541676 -31.06640625 436.859375 C-34.18874919 433.4790607 -34.91175443 430.69589811 -35.5 426.25 C-36.08152832 426.17483154 -36.66305664 426.09966309 -37.26220703 426.0222168 C-39.02907664 425.79353665 -40.79582967 425.56395485 -42.5625 425.33374023 C-44.62185152 425.06729193 -46.68176514 424.80515606 -48.7421875 424.54711914 C-54.08033973 423.86967833 -59.38242999 423.12018096 -64.6796875 422.171875 C-66.14704346 421.92497925 -66.14704346 421.92497925 -67.64404297 421.6730957 C-69.51001303 421.35582656 -71.37166574 421.01168416 -73.22705078 420.63745117 C-78.10767874 419.80388283 -78.10767874 419.80388283 -82.60546875 421.49658203 C-84.35067319 423.00024658 -85.91272855 424.58409774 -87.5 426.25 C-91.44872424 428.22436212 -96.19616767 427.68829693 -100.5 427.25 C-104.95146251 425.06473658 -107.68885145 422.3105479 -110.5 418.25 C-112.22237197 413.0828841 -112.15561622 408.14400242 -110.375 403 C-108.5 400.25 -108.5 400.25 -105.43112183 398.02095032 C-102.84610447 395.90343506 -102.53764311 395.4133967 -101.74050903 391.95329285 C-101.73606781 390.70308853 -101.73162659 389.45288422 -101.72705078 388.16479492 C-101.71642105 387.47156128 -101.70579132 386.77832764 -101.69483948 386.06408691 C-101.66685902 383.78546875 -101.6808259 381.509179 -101.6953125 379.23046875 C-101.68405866 377.64575687 -101.67017639 376.06106165 -101.65377808 374.47639465 C-101.61775871 370.31531628 -101.61736397 366.15497289 -101.62445068 361.99377441 C-101.62536397 357.74376296 -101.59249986 353.49402641 -101.5625 349.24414062 C-101.50865547 340.91265923 -101.49245369 332.58165091 -101.5 324.25 C-102.43380493 324.03960083 -102.43380493 324.03960083 -103.38647461 323.82495117 C-108.14381546 322.5307918 -111.59492551 318.47622996 -114.4375 314.625 C-116.48949331 308.1069036 -116.71260284 301.04534519 -113.8125 294.75 C-111.14731982 290.21071785 -107.38305743 287.20322297 -102.5 285.25 C-101.51 285.25 -100.52 285.25 -99.5 285.25 C-99.44671036 284.41226547 -99.39342072 283.57453094 -99.33851624 282.71141052 C-98.74698723 273.89002874 -97.8833505 265.13117026 -96.87109375 256.34765625 C-96.71521947 254.97200038 -96.55971482 253.59630258 -96.40455627 252.2205658 C-95.75354303 246.4549575 -95.0950595 240.69020643 -94.43579102 234.92553711 C-94.02938163 231.36954472 -93.62677947 227.81313664 -93.22633553 224.25646782 C-93.00112215 222.26707403 -92.77141751 220.27819031 -92.54161072 218.2893219 C-92.40469315 217.07373093 -92.26777557 215.85813995 -92.12670898 214.60571289 C-92.00537094 213.54429581 -91.8840329 212.48287872 -91.75901794 211.38929749 C-91.4759164 207.95810679 -91.27342963 204.68931157 -91.5 201.25 C-94.05512004 198.83344772 -94.05512004 198.83344772 -95.96484375 197.46875 C-99.36038519 194.77305298 -100.31885171 191.67704595 -100.8515625 187.48046875 C-101.14450713 181.35175865 -100.67402117 176.88502886 -97 171.875 C-94.68467343 169.36672955 -92.53712735 167.83458818 -89.5 166.25 C-88.51 166.25 -87.52 166.25 -86.5 166.25 C-86.41435791 165.41750732 -86.32871582 164.58501465 -86.24047852 163.72729492 C-85.92075647 160.63520927 -85.59800184 157.54345946 -85.27319336 154.4519043 C-85.0645513 152.45711218 -84.85940662 150.46195528 -84.65429688 148.46679688 C-84.52216797 147.21318359 -84.39003906 145.95957031 -84.25390625 144.66796875 C-84.13345947 143.51063232 -84.0130127 142.3532959 -83.88891602 141.16088867 C-83.5 138.25 -83.5 138.25 -82.5 135.25 C-83.36625 135.0953125 -83.36625 135.0953125 -84.25 134.9375 C-89.18221711 133.43043366 -93.0009762 129.39027287 -95.90625 125.2421875 C-99.57006209 118.15009409 -99.91916932 110.01108418 -97.65234375 102.40625 C-94.99654711 96.42845689 -91.2666966 92.38158359 -85.5 89.25 C-84.84 89.25 -84.18 89.25 -83.5 89.25 C-83.79648437 88.1465625 -84.09296875 87.043125 -84.3984375 85.90625 C-85.64979286 80.90082857 -86.39801093 75.85376003 -87.125 70.75 C-87.2590625 69.8321875 -87.393125 68.914375 -87.53125 67.96875 C-87.85778325 65.72966488 -88.18062358 63.49011515 -88.5 61.25 C-89.26183594 61.11980469 -90.02367187 60.98960938 -90.80859375 60.85546875 C-95.76875227 59.73961306 -98.78868661 57.19200962 -101.8125 53.1875 C-105.01887937 47.6060248 -104.97107182 42.54605608 -104.5 36.25 C-102.70462385 30.41502752 -98.31990139 26.77746816 -93.5 23.25 C-87.49689484 21.24896495 -80.81902447 21.24076365 -75.0625 24 C-72.72292324 25.27337655 -71.4630533 26.29606178 -69.77514648 28.40039062 C-67.61579047 30.58433 -67.61579047 30.58433 -64.63085938 30.06152344 C-63.54611328 29.74731445 -62.46136719 29.43310547 -61.34375 29.109375 C-60.15652344 28.78066406 -58.96929687 28.45195313 -57.74609375 28.11328125 C-56.50988281 27.74589844 -55.27367187 27.37851562 -54 27 C-51.55317154 26.30345759 -49.1052944 25.61058564 -46.65625 24.921875 C-45.57150391 24.6031543 -44.48675781 24.28443359 -43.36914062 23.95605469 C-40.5 23.25 -40.5 23.25 -36.5 23.25 C-36.48582031 22.693125 -36.47164063 22.13625 -36.45703125 21.5625 C-35.95548189 13.53771027 -32.96232951 8.27772635 -27.0625 2.875 C-20.07699112 -3.15105345 -8.18858072 -3.95418157 0 0 Z M-22.5 17.25 C-23.62637087 20.34751989 -23.90423566 22.98096379 -23.5 26.25 C-21.39251335 30.62708765 -19.08692088 33.51716322 -14.5 35.25 C-9.52599143 35.54898412 -6.40870275 34.98832098 -2.5 31.8125 C0.3204294 28.19882483 0.84414128 25.98610073 0.78515625 21.3515625 C0.22620038 17.23213433 -2.05117112 14.38836555 -5.25 11.875 C-12.60382427 9.83227104 -17.97975255 10.89827298 -22.5 17.25 Z M-89.875 36.8125 C-91.82083942 39.25592927 -91.82083942 39.25592927 -91.5625 42.8125 C-90.79181561 46.33082091 -90.79181561 46.33082091 -88.25 48.3125 C-85.54998726 49.49583592 -85.54998726 49.49583592 -82.875 48.6875 C-80.20065492 47.06881745 -78.84130632 46.09041338 -77.5 43.25 C-78 40.08333333 -78 40.08333333 -79.5 37.25 C-83.48338636 34.59440909 -85.78942481 34.12462159 -89.875 36.8125 Z M-37.70800781 35.53027344 C-39.56184082 36.06442871 -39.56184082 36.06442871 -41.453125 36.609375 C-42.11334656 36.79260315 -42.77356812 36.9758313 -43.45379639 37.16461182 C-45.55948616 37.75447423 -47.65402645 38.37658715 -49.75 39 C-51.1764705 39.40580626 -52.60354988 39.8094787 -54.03125 40.2109375 C-57.5282352 41.19930386 -61.01596197 42.21680252 -64.5 43.25 C-64.83 44.57 -65.16 45.89 -65.5 47.25 C-57.00550251 53.81161782 -48.24553143 59.9204165 -39.359375 65.9375 C-36.15515261 68.10950686 -32.98078288 70.31633153 -29.828125 72.5625 C-29.09754883 73.07893066 -28.36697266 73.59536133 -27.61425781 74.12744141 C-26.23279965 75.10594769 -24.85685707 76.0923006 -23.48730469 77.08740234 C-21.87765916 78.22056916 -20.19355998 79.24656571 -18.5 80.25 C-17.51 79.92 -16.52 79.59 -15.5 79.25 C-15.38186457 68.52592816 -15.62842148 57.94240075 -16.5 47.25 C-17.69625 46.858125 -18.8925 46.46625 -20.125 46.0625 C-25.24761178 44.14378322 -28.85671006 41.37362202 -32.23730469 37.00488281 C-34.44866965 34.87954144 -34.44866965 34.87954144 -37.70800781 35.53027344 Z M-2.5 46.25 C-3.79019897 47.31701255 -3.79019897 47.31701255 -3.6328125 49.8125 C-3.62576764 52.91223773 -3.59179309 56.00979165 -3.52832031 59.10888672 C-3.4988651 61.33580241 -3.52713068 63.55828011 -3.5546875 65.78515625 C-3.84423811 73.54412964 -3.84423811 73.54412964 -0.7578125 80.26171875 C1.33837601 81.53902145 1.33837601 81.53902145 3.5625 82.421875 C6.42572566 83.64567306 7.25407422 85.48127606 8.5 88.25 C8.67789063 89.07113281 8.85578125 89.89226562 9.0390625 90.73828125 C10.71534339 93.62022941 11.23326145 93.78315026 14.28125 94.76171875 C15.84851242 95.17567791 17.42200404 95.566552 19 95.9375 C19.81065918 96.14463623 20.62131836 96.35177246 21.45654297 96.56518555 C27.10040101 97.98546056 32.76925377 99.2332547 38.5 100.25 C39.44466057 98.5630311 39.44466057 98.5630311 39.5 96.25 C37.99166567 94.09786443 36.51776232 92.29399453 34.75 90.375 C33.71911266 89.2090092 32.69053274 88.04097499 31.6640625 86.87109375 C31.13458008 86.27151855 30.60509766 85.67194336 30.05957031 85.05419922 C27.64518799 82.26110507 25.38389123 79.35672738 23.125 76.4375 C18.50800043 70.49716195 13.78564924 64.64988771 9.00244141 58.8425293 C6.45080896 55.72720132 4.02181846 52.59840084 1.7421875 49.27734375 C1.00226563 48.27832031 0.26234375 47.27929688 -0.5 46.25 C-1.16 46.25 -1.82 46.25 -2.5 46.25 Z M-75.5 59.25 C-75.17526528 63.65769079 -74.7245307 68.04361429 -74.25 72.4375 C-74.15976562 73.68337891 -74.06953125 74.92925781 -73.9765625 76.21289062 C-73.53937567 79.91904264 -73.06355086 82.85505473 -71.5 86.25 C-68.51643786 88.31788952 -65.85542309 89.36046079 -62.38232422 90.38549805 C-57.30625964 91.90797346 -54.42348541 94.86477189 -51.5 99.25 C-38.34672867 96.29883233 -38.34672867 96.29883233 -25.5 92.25 C-30.07292993 87.19058817 -35.51636759 83.58316499 -41.125 79.75 C-42.63924561 78.70682617 -42.63924561 78.70682617 -44.18408203 77.64257812 C-46.26366895 76.2111699 -48.34489596 74.7821416 -50.42773438 73.35546875 C-53.35744261 71.34769667 -56.28113315 69.33147965 -59.203125 67.3125 C-60.9268215 66.12461997 -62.65076656 64.93710051 -64.375 63.75 C-65.18275879 63.19248047 -65.99051758 62.63496094 -66.82275391 62.06054688 C-67.55929199 61.55587891 -68.29583008 61.05121094 -69.0546875 60.53125 C-69.69905762 60.08845703 -70.34342773 59.64566406 -71.00732422 59.18945312 C-73.15751358 57.83617726 -73.14331424 58.07165712 -75.5 59.25 Z M-12.5 92.25 C-12.91666667 95.25 -12.91666667 95.25 -12.5 98.25 C-10.67528109 100.46896136 -10.67528109 100.46896136 -8.0625 100.625 C-5.40177389 100.47148113 -5.40177389 100.47148113 -3.5625 98.5625 C-2.23220514 96.25300052 -2.23220514 96.25300052 -3 93.5625 C-4.3080892 91.04974599 -4.3080892 91.04974599 -6.9375 90.3125 C-9.74528606 89.99837398 -9.74528606 89.99837398 -12.5 92.25 Z M-79.5 101.25 C-83.47184495 104.78052884 -85.3086953 106.6375747 -85.9375 111.9375 C-85.91264629 116.47744391 -84.03738613 118.68982485 -81.0078125 121.90234375 C-78.09179512 124.50862872 -75.45519165 124.58420244 -71.6015625 124.53515625 C-68.16230327 124.06849096 -66.08853482 122.46874413 -63.5 120.25 C-60.94329218 116.05032186 -60.70227037 112.04468746 -61.5 107.25 C-63.35651799 103.32976335 -65.96958978 101.48145173 -69.9375 99.75 C-73.98371157 99.18211066 -75.86025194 99.43012597 -79.5 101.25 Z M52.5 103.25 C49.75891801 106.42388442 48.62566209 108.55885851 47.875 112.6875 C48.72303634 117.52130716 50.52736086 120.34972971 54.5 123.25 C57.5938684 124.38055797 60.23363423 124.66486935 63.5 124.25 C67.34676353 122.29164766 69.10966175 120.83550738 71.5 117.25 C72.17581494 113.51523324 72.30786958 109.83235611 70.5546875 106.3984375 C68.013479 103.15400149 65.46352776 101.29303362 61.5 100.25 C57.65240462 100.25 55.77718112 101.24356258 52.5 103.25 Z M-35.5 108.125 C-37.03527344 108.52912109 -37.03527344 108.52912109 -38.6015625 108.94140625 C-39.57867187 109.20566406 -40.55578125 109.46992188 -41.5625 109.7421875 C-42.46097656 109.98308105 -43.35945313 110.22397461 -44.28515625 110.47216797 C-47.25818094 111.51626593 -48.25252869 112.74168638 -49.62060547 115.55175781 C-50.69893856 119.1413686 -51.02024682 121.51208345 -50.5 125.25 C-47.09910414 131.06958353 -41.55131829 135.50626492 -36.625 140 C-35.26376999 141.29095 -33.90565654 142.58519468 -32.55078125 143.8828125 C-29.23537132 147.04447522 -25.88052141 150.15811384 -22.5 153.25 C-20.19 152.59 -17.88 151.93 -15.5 151.25 C-15.18349681 145.78870125 -14.91426685 140.32785265 -14.68823242 134.86206055 C-14.6047848 133.00401409 -14.50854149 131.14649576 -14.39916992 129.28979492 C-14.24395111 126.61674095 -14.13519358 123.94514917 -14.03515625 121.26953125 C-13.94815208 120.0286248 -13.94815208 120.0286248 -13.85939026 118.76264954 C-13.79698683 116.39268002 -13.82119364 114.52407059 -14.5 112.25 C-16.17458504 110.52872268 -17.80218877 109.40448812 -19.88743591 108.2219696 C-21.5 107.25 -21.5 107.25 -22.5 105.25 C-26.88870929 105.25 -31.28848896 106.98460343 -35.5 108.125 Z M1.5 110.25 C0.51 110.91 -0.48 111.57 -1.5 112.25 C-3.65698781 120.08626333 -2.61436219 129.33237079 -2.5625 137.375 C-2.55747139 138.72656083 -2.55291091 140.07812348 -2.54882812 141.4296875 C-2.53713711 144.70317265 -2.52075029 147.97656186 -2.5 151.25 C0.30698399 152.83673612 0.30698399 152.83673612 3.43359375 153.15625 C6.3646346 151.87080297 8.25053371 149.9564126 10.5625 147.75 C14.29116242 144.24781277 18.07503834 140.89899256 22.0625 137.6875 C22.95453125 136.95144531 23.8465625 136.21539062 24.765625 135.45703125 C26.63450242 133.94858019 28.54368851 132.48909097 30.484375 131.07421875 C33.24788142 128.92524898 35.47914741 127.11248914 37.5 124.25 C37.73374705 120.24513392 36.90900468 116.98176982 35.5 113.25 C29.79589516 111.2128197 24.05443361 109.55052899 18.1875 108.0625 C17.49398437 107.88364258 16.80046875 107.70478516 16.0859375 107.52050781 C9.492164 105.87846616 6.66749473 105.7450046 1.5 110.25 Z M46.5 133.25 C44.22448985 134.90296492 42.20469536 136.56138544 40.125 138.4375 C39.50939209 138.97906738 38.89378418 139.52063477 38.25952148 140.07861328 C32.88368575 144.83318336 27.6177328 149.70951117 22.3671875 154.6015625 C19.14743758 157.57566392 15.86028397 160.436739 12.5 163.25 C13.16 166.55 13.82 169.85 14.5 173.25 C26.0854849 176.52938578 37.69796035 179.65482242 49.39135742 182.52734375 C51.0298966 182.93181526 52.66724495 183.34113662 54.3034668 183.75488281 C56.71682718 184.36504333 59.13321893 184.96142513 61.55078125 185.5546875 C62.27783768 185.74102753 63.0048941 185.92736755 63.75398254 186.11935425 C67.66348697 187.05977733 70.62113 187.42335227 74.5 186.25 C75.6080759 182.9257723 75.39843247 182.01751551 74.51879883 178.734375 C74.27716507 177.82333008 74.03553131 176.91228516 73.78657532 175.97363281 C72.62830865 171.82164149 71.45697095 167.67420111 70.25317383 163.53515625 C69.62779132 161.35110563 69.02377349 159.16082032 68.44165039 156.96484375 C65.82588546 144.60050738 65.82588546 144.60050738 58.43896484 135.1796875 C55.31996386 134.40499065 52.69975704 134.18380017 49.5 134.25 C48.51 133.92 47.52 133.59 46.5 133.25 Z M-65.5625 135.625 C-66.27535156 135.88023437 -66.98820312 136.13546875 -67.72265625 136.3984375 C-69.68919715 137.1172375 -69.68919715 137.1172375 -70.5 139.25 C-71.34360154 143.80907316 -71.90811193 148.40254386 -72.5 153 C-72.69722656 154.27617187 -72.89445312 155.55234375 -73.09765625 156.8671875 C-74.17882025 163.43503166 -74.17882025 163.43503166 -72.03515625 169.40820312 C-70.2626772 170.89976781 -68.47644526 172.05415783 -66.5 173.25 C-66.17 173.91 -65.84 174.57 -65.5 175.25 C-54.78113466 174.1860366 -44.1256451 173.04319684 -33.5 171.25 C-32.51 168.28 -31.52 165.31 -30.5 162.25 C-32.00626953 160.85201172 -32.00626953 160.85201172 -33.54296875 159.42578125 C-34.92502764 158.13860948 -36.30649493 156.85080233 -37.6875 155.5625 C-38.40695801 154.8914624 -39.12641602 154.2204248 -39.86767578 153.52905273 C-45.21458229 148.51640157 -50.42782292 143.39125265 -55.51245117 138.11254883 C-56.80583351 136.78907325 -58.148515 135.51408613 -59.5 134.25 C-61.81962709 134.25 -63.38747434 134.82762217 -65.5625 135.625 Z M-19.5 168.25 C-21.03214888 171.31429776 -20.72938548 173.8665642 -20.5 177.25 C-18.70957902 181.39623807 -16.62768764 183.42613802 -12.5 185.25 C-8.51751003 185.8431368 -6.82359071 185.42424115 -3.25 183.5 C0.38332579 180.5272789 1.27535989 178.97224085 1.875 174.375 C1.39541545 170.37846204 0.03260567 168.34540692 -2.5 165.25 C-8.81530443 160.4590794 -14.6188773 163.3688773 -19.5 168.25 Z M-86.3125 179.375 C-88.07002414 182.15003811 -87.96822746 184.03929745 -87.5 187.25 C-85.98105194 189.34764165 -85.98105194 189.34764165 -83.5 190.25 C-80.37319901 190.25674926 -80.37319901 190.25674926 -77.5 189.25 C-75.17961905 186.42431454 -75.17961905 186.42431454 -75.6875 183.1875 C-76.23754498 179.95259047 -76.23754498 179.95259047 -79.5 178.25 C-82.33079592 177.89615051 -83.86830089 177.8579109 -86.3125 179.375 Z M-49.75 185.6875 C-50.74257813 185.82220703 -51.73515625 185.95691406 -52.7578125 186.09570312 C-58.20361768 186.83658819 -58.20361768 186.83658819 -63.5 188.25 C-64.70175547 189.97138304 -64.70175547 189.97138304 -65.625 192.0625 C-65.95757812 192.74957031 -66.29015625 193.43664062 -66.6328125 194.14453125 C-68.26401721 198.10497873 -68.796507 200.32987432 -67.14477539 204.37597656 C-66.82436783 205.17650452 -66.50396027 205.97703247 -66.17384338 206.80181885 C-65.81870163 207.65612488 -65.46355988 208.51043091 -65.09765625 209.390625 C-64.74110458 210.27280701 -64.38455292 211.15498901 -64.01719666 212.06390381 C-62.87607921 214.88031592 -61.71953409 217.69009435 -60.5625 220.5 C-59.7860849 222.4084377 -59.01068164 224.31728738 -58.23632812 226.2265625 C-56.33592649 230.90590299 -54.42166448 235.57935355 -52.5 240.25 C-51.51 240.25 -50.52 240.25 -49.5 240.25 C-46.18934091 233.78059379 -42.89739967 227.30191994 -39.6184082 220.81640625 C-38.50032255 218.61044031 -37.37794185 216.40664591 -36.2512207 214.20507812 C-34.6340407 211.04335236 -33.03237991 207.87418325 -31.43359375 204.703125 C-30.67120644 203.22480194 -30.67120644 203.22480194 -29.89341736 201.71661377 C-29.43286453 200.7959613 -28.97231171 199.87530884 -28.49780273 198.92675781 C-28.08698959 198.1184552 -27.67617645 197.31015259 -27.25291443 196.47735596 C-26.37191146 193.87107409 -26.53388757 192.79131382 -27.5 190.25 C-29 186.91666667 -29 186.91666667 -31.5 184.25 C-37.61832466 183.70632924 -43.69631206 184.82896246 -49.75 185.6875 Z M9.8125 187.75 C9.379375 188.245 8.94625 188.74 8.5 189.25 C10.95490652 195.76777682 13.92375266 201.97322894 18.5 207.25 C21.32570232 208.0831634 23.20600257 207.92483297 26.10546875 207.51953125 C29.95443424 207.08628717 32.13307304 208.43185944 35.5 210.25 C36.11875 210.86875 36.7375 211.4875 37.375 212.125 C39.37730165 213.47619117 39.37730165 213.47619117 41.28735352 212.8684082 C47.49661123 210.6916844 53.53278979 208.1934174 59.5625 205.5625 C60.52349609 205.14677734 61.48449219 204.73105469 62.47460938 204.30273438 C64.81787486 203.28848513 67.15960887 202.27085998 69.5 201.25 C67.11533248 198.86533248 65.7055472 198.62284894 62.45532227 197.82958984 C61.40405655 197.56947113 60.35279083 197.30935242 59.26966858 197.04135132 C57.56030373 196.63029648 57.56030373 196.63029648 55.81640625 196.2109375 C54.06673805 195.78235947 54.06673805 195.78235947 52.28172302 195.34512329 C49.81192648 194.74168955 47.34128193 194.14171779 44.86987305 193.54492188 C41.07984654 192.6291912 37.2927025 191.70223471 33.50585938 190.7734375 C31.10953712 190.18943852 28.71305782 189.60608354 26.31640625 189.0234375 C24.61007774 188.60630997 24.61007774 188.60630997 22.86927795 188.18075562 C21.81486008 187.92694122 20.7604422 187.67312683 19.67407227 187.41162109 C18.7452272 187.1867099 17.81638214 186.96179871 16.85939026 186.73007202 C13.02368195 185.87061276 13.02368195 185.87061276 9.8125 187.75 Z M84.5 194.25 C83.84 195.57 83.18 196.89 82.5 198.25 C83.49 199.735 83.49 199.735 84.5 201.25 C86.15 200.92 87.8 200.59 89.5 200.25 C90.1814823 198.35820797 90.1814823 198.35820797 90.5 196.25 C89.84 195.59 89.18 194.93 88.5 194.25 C87.18 194.25 85.86 194.25 84.5 194.25 Z M-6.71362305 197.18969727 C-11.80959322 197.22616721 -11.80959322 197.22616721 -16.04541016 199.69482422 C-17.33712731 201.80207696 -18.33624464 203.91654517 -19.3125 206.1875 C-20.1288397 207.90107337 -20.9452501 209.61461306 -21.76171875 211.328125 C-22.40633057 212.73481445 -22.40633057 212.73481445 -23.06396484 214.16992188 C-24.65299435 217.57814973 -26.32414377 220.94078762 -28.01953125 224.296875 C-28.46843468 225.18585228 -28.46843468 225.18585228 -28.92640686 226.0927887 C-29.22486008 226.68357712 -29.52331329 227.27436554 -29.83081055 227.88305664 C-32.41056588 232.99377346 -34.95537647 238.12172497 -37.5 243.25 C-37.08717773 243.72268311 -36.67435547 244.19536621 -36.24902344 244.68237305 C-35.70793945 245.30668213 -35.16685547 245.93099121 -34.609375 246.57421875 C-34.07280273 247.19127686 -33.53623047 247.80833496 -32.98339844 248.4440918 C-30.45280493 251.52486865 -28.67443936 254.48577946 -28.27661133 258.50927734 C-27.8711584 262.4744761 -27.41525653 265.28828315 -24.60986328 268.23608398 C-22.13179331 270.04024792 -19.6114584 271.5650064 -16.9375 273.0625 C-16.06802734 273.61486328 -15.19855469 274.16722656 -14.30273438 274.73632812 C-9.87133722 277.3303973 -6.65410196 278.86302764 -1.53515625 277.57421875 C1.64566034 276.16110763 3.08413983 274.94750655 4.35546875 271.703125 C4.75955705 270.22473669 5.1395167 268.73962114 5.5 267.25 C6.04973382 265.57519084 6.60871016 263.90339368 7.17578125 262.234375 C7.72433664 260.49051871 8.26987886 258.74571191 8.8125 257 C9.10189453 256.11570312 9.39128906 255.23140625 9.68945312 254.3203125 C9.95306641 253.46695313 10.21667969 252.61359375 10.48828125 251.734375 C10.73102783 250.96834961 10.97377441 250.20232422 11.22387695 249.41308594 C11.57230279 246.68359615 10.95739958 245.54614546 9.5 243.25 C8.84 242.445625 8.18 241.64125 7.5 240.8125 C3.57268508 235.78062776 3.125 231.2701175 3.125 225.05859375 C3.53442878 221.99214281 4.41688349 220.59070653 6.125 218.0625 C7.44192642 215.93592902 7.44192642 215.93592902 7.5 213.25 C5.29289647 207.59039648 1.59488786 201.74279514 -2.5 197.25 C-3.90468484 197.25 -5.30945913 197.227949 -6.71362305 197.18969727 Z M-78.5 211.25 C-79.54640607 220.29013043 -80.58975298 229.33060717 -81.62921143 238.37153912 C-82.1119845 242.56972637 -82.59580483 246.76778737 -83.08203125 250.96557617 C-83.55134915 255.01772574 -84.01789942 259.0701853 -84.48254395 263.12287331 C-84.66017414 264.66790913 -84.83879616 266.21283127 -85.01843262 267.75763512 C-85.2701346 269.92366009 -85.51828642 272.09006484 -85.765625 274.2565918 C-85.90774414 275.48903122 -86.04986328 276.72147064 -86.19628906 277.99125671 C-86.45554048 280.77296033 -86.56208191 283.45971959 -86.5 286.25 C-83.45914826 286.57699189 -83.45914826 286.57699189 -81.59765625 284.60546875 C-80.92605469 283.89003906 -80.25445312 283.17460937 -79.5625 282.4375 C-75.72763827 278.38096997 -75.72763827 278.38096997 -73.21875 276.9375 C-71.11639037 275.26678399 -71.11639037 275.26678399 -71.43359375 271.95703125 C-71.59988281 270.67183594 -71.76617187 269.38664062 -71.9375 268.0625 C-72.57207257 261.86839124 -72.51759916 257.78226513 -69.5 252.25 C-68.60521057 251.16901161 -67.68845258 250.10580762 -66.75 249.0625 C-64.21582198 246.55622547 -64.21582198 246.55622547 -64.68920898 244.01489258 C-65.67358854 240.65804268 -66.90215838 237.4342486 -68.22265625 234.19921875 C-68.62006264 233.21100883 -68.62006264 233.21100883 -69.02549744 232.20283508 C-69.86710865 230.11272663 -70.71470332 228.02510607 -71.5625 225.9375 C-72.13646541 224.51513438 -72.71003737 223.09260992 -73.28320312 221.66992188 C-74.6842544 218.19475946 -76.09067459 214.72181468 -77.5 211.25 C-77.83 211.25 -78.16 211.25 -78.5 211.25 Z M67.66796875 215.09375 C67.03135818 215.38229858 66.39474762 215.67084717 65.73884583 215.96813965 C63.71761409 216.88669931 61.70261 217.81809883 59.6875 218.75 C58.31354255 219.3771605 56.93919728 220.00347211 55.56445312 220.62890625 C52.2050885 222.15946653 48.85118324 223.70159432 45.5 225.25 C44.07057213 232.41336264 44.07057213 232.41336264 46.23828125 239.01171875 C47.08777344 239.64722656 47.93726563 240.28273438 48.8125 240.9375 C49.73675781 241.66195312 50.66101563 242.38640625 51.61328125 243.1328125 C52.56589844 243.83148438 53.51851562 244.53015625 54.5 245.25 C56.17034923 246.59962165 57.83714054 247.95366095 59.5 249.3125 C60.72589844 250.27349609 60.72589844 250.27349609 61.9765625 251.25390625 C63.74312485 252.65129536 65.4862902 254.07854061 67.2109375 255.52734375 C68.09007812 256.26082031 68.96921875 256.99429688 69.875 257.75 C71.06222656 258.75546875 71.06222656 258.75546875 72.2734375 259.78125 C74.61193609 261.61709211 74.61193609 261.61709211 78.5 261.25 C79.24206833 244.90673445 79.65283326 228.61021265 79.5 212.25 C74.89480255 211.85516032 71.82897794 213.18738456 67.66796875 215.09375 Z M16.5 223.25 C15.05569145 226.13861709 15.12311494 228.04647701 15.5 231.25 C18.10163431 234.87652055 19.59906719 236.07303105 24 236.9375 C27.69321382 236.5093629 27.69321382 236.5093629 30.5 233.6875 C32.78116946 230.38991621 32.78116946 230.38991621 32.625 226.625 C31.28963856 222.61891567 30.14931451 221.32347415 26.5 219.25 C21.89954134 218.32990827 19.79251897 220.14039875 16.5 223.25 Z M24.5 249.25 C22.82905812 252.18855295 22.26657904 254.03129161 21.5 257.25 C21.08561755 258.56702151 20.6601071 259.88056776 20.2265625 261.19140625 C17.48165244 269.05020659 17.48165244 269.05020659 16.5 277.25 C18.25311437 280.24215761 20.38679909 281.78118581 23.5 283.25 C26.5496747 283.24722785 26.5496747 283.24722785 29.84375 282.609375 C31.08334473 282.40296387 32.32293945 282.19655273 33.60009766 281.98388672 C39.88291174 280.80158178 46.13290352 279.50552716 52.375 278.125 C53.64730469 277.84785156 54.91960937 277.57070313 56.23046875 277.28515625 C59.32131427 276.61121249 62.4110974 275.932783 65.5 275.25 C65.83 273.93 66.16 272.61 66.5 271.25 C58.29778022 264.07579176 50.07961771 256.97330042 41.5 250.25 C40.18902344 249.15365234 40.18902344 249.15365234 38.8515625 248.03515625 C34.51110887 244.74016072 29.10081709 247.01114085 24.5 249.25 Z M-57.5 256.25 C-59.78875518 259.46856197 -60.5 261.36858134 -60.5 265.3125 C-59.19865985 269.13518669 -57.71093673 270.80689596 -54.5 273.25 C-50.10476848 274.60852611 -48.31211049 274.66371666 -44.1875 272.5625 C-40.98544084 269.91081668 -40.98544084 269.91081668 -39.5 266.25 C-39.57893816 261.90840108 -40.0550614 259.81853266 -42.75 256.375 C-48.17499796 252.18295612 -51.60592337 252.86636341 -57.5 256.25 Z M79.0625 274.8125 C77.16558465 277.27623116 77.16558465 277.27623116 77.5625 280.875 C78.1750845 284.50516924 78.1750845 284.50516924 81.5 286.25 C84.45746492 286.83345476 84.45746492 286.83345476 87.5 286.25 C90.0714939 284.1815113 90.0714939 284.1815113 91.5 281.25 C91.43107581 278.35518392 90.88861317 276.84314642 89.3125 274.4375 C85.70871055 272.07639657 82.57419768 272.56141174 79.0625 274.8125 Z M-40.5 285.25 C-38.52 299.44 -36.54 313.63 -34.5 328.25 C-32.19 328.58 -29.88 328.91 -27.5 329.25 C-24.59936332 325.49702727 -24.59936332 325.49702727 -21.71386719 321.73242188 C-19.43715869 318.7493706 -17.14022227 315.79338065 -14.76171875 312.890625 C-14.12737915 312.09736816 -14.12737915 312.09736816 -13.48022461 311.28808594 C-12.30496698 309.81872237 -11.11378407 308.36213893 -9.921875 306.90625 C-9.21804688 305.59140625 -9.21804688 305.59140625 -8.5 304.25 C-9.19369824 301.89526121 -9.19369824 301.89526121 -10.5 299.25 C-10.52557028 297.60693677 -10.53432669 295.9635718 -10.53125 294.3203125 C-10.80379628 291.09876769 -11.02809914 289.72114943 -13.33984375 287.41308594 C-15.82868497 285.79574782 -18.33860805 284.43841421 -21 283.125 C-21.89332031 282.64546875 -22.78664063 282.1659375 -23.70703125 281.671875 C-31.49495136 277.13971726 -31.49495136 277.13971726 -40.5 285.25 Z M-70.5 291.25 C-71.65261798 292.24566574 -72.81771957 293.22724407 -74 294.1875 C-74.825 294.868125 -75.65 295.54875 -76.5 296.25 C-76.31824219 296.79527344 -76.13648438 297.34054687 -75.94921875 297.90234375 C-75.5 300.25 -75.5 300.25 -75.89453125 302.87890625 C-76.39487053 306.39063338 -76.41298265 308.80234406 -75.5 312.25 C-72.22399036 316.32019379 -67.63354942 319.10569781 -63.33007812 321.98046875 C-59.87053725 324.3803637 -56.76393296 327.22938918 -53.5859375 329.984375 C-51.57652854 331.50087205 -51.57652854 331.50087205 -49.2265625 330.953125 C-48.37191406 330.60507812 -48.37191406 330.60507812 -47.5 330.25 C-47.85058414 320.76669908 -49.08003769 311.4462374 -50.4375 302.0625 C-50.60733398 300.8561792 -50.77716797 299.6498584 -50.95214844 298.40698242 C-51.12133789 297.26849854 -51.29052734 296.13001465 -51.46484375 294.95703125 C-51.6155835 293.9306958 -51.76632324 292.90436035 -51.92163086 291.84692383 C-52.38466549 289.03239748 -52.38466549 289.03239748 -54.5 286.25 C-62.36396011 282.7247765 -64.89636556 285.46188376 -70.5 291.25 Z M2.6875 288.375 C0.94801218 291.12155972 1.10230872 293.06846974 1.5 296.25 C2.41666667 298.33333333 2.41666667 298.33333333 4.5 299.25 C8.14541845 299.01522801 8.14541845 299.01522801 11.5 298.25 C12.87963682 295.53104472 12.87963682 295.53104472 13.5 292.25 C12.09121904 289.2598357 12.09121904 289.2598357 9.5 287.25 C6.56402619 286.67712706 5.22646491 286.79909074 2.6875 288.375 Z M56.53515625 289.74609375 C55.3514872 289.97559471 55.3514872 289.97559471 54.14390564 290.20973206 C52.47344227 290.53415769 50.80316383 290.85953677 49.13305664 291.18579102 C46.57688661 291.68469209 44.01994137 292.17946334 41.46289062 292.67382812 C39.84109731 292.989334 38.21935092 293.30508122 36.59765625 293.62109375 C35.83195816 293.76904892 35.06626007 293.91700409 34.27735901 294.06944275 C31.27723391 294.65794193 28.40408341 295.2819722 25.5 296.25 C24.47897476 298.01002966 24.47897476 298.01002966 23.8125 300.125 C23.56113281 300.82367188 23.30976563 301.52234375 23.05078125 302.2421875 C22.14440039 305.54629927 22.37924166 307.02287901 23.99707031 310.06567383 C24.68381836 311.18482178 25.37056641 312.30396973 26.078125 313.45703125 C26.44597107 314.06004562 26.81381714 314.66306 27.19281006 315.28434753 C28.37236718 317.21425846 29.56117074 319.13829012 30.75 321.0625 C31.53573816 322.34664933 32.32090098 323.63115089 33.10546875 324.91601562 C36.47902979 330.42521474 39.89018869 335.8924131 43.5 341.25 C47.08911756 341.54967389 50.06860901 341.39220927 53.5 340.25 C54.98488911 338.30099561 54.98488911 338.30099561 55.88671875 335.71875 C56.2947876 334.72319092 56.70285645 333.72763184 57.12329102 332.7019043 C57.57760498 331.56277588 58.03191895 330.42364746 58.5 329.25 C59.05879136 327.95854932 59.62275068 326.66932562 60.19116211 325.38208008 C61.74379372 321.86051348 63.2371653 318.31774074 64.70605469 314.76049805 C65.32328532 313.28416239 65.95406731 311.81342584 66.59765625 310.34838867 C70.56869354 302.16546502 70.56869354 302.16546502 70.81933594 293.45068359 C69.54587234 291.32027926 68.44873335 289.7829654 66.5 288.25 C63.12375013 288.25 59.83955854 289.10055791 56.53515625 289.74609375 Z M-101.5 300.25 C-102.92041821 303.09083641 -102.81452272 305.10477278 -102.5 308.25 C-101.06338689 310.77006844 -101.06338689 310.77006844 -98.5 312.25 C-95 313 -95 313 -91.5 312.25 C-88.84115399 310.25979883 -88.84115399 310.25979883 -87.5 307.25 C-87.56449984 304.02500781 -87.91508147 302.09813186 -89.75 299.4375 C-94.28760118 296.35841349 -97.24634504 297.05975878 -101.5 300.25 Z M-5.8125 320.375 C-6.99582903 322.10695173 -8.17941561 323.83872753 -9.36328125 325.5703125 C-9.90412354 326.38910889 -10.44496582 327.20790527 -11.00219727 328.05151367 C-12.5 330.25 -12.5 330.25 -14.921875 333.18359375 C-16.80643705 335.2059285 -16.80643705 335.2059285 -16.4375 338.1875 C-16.128125 339.198125 -15.81875 340.20875 -15.5 341.25 C-15.2525 342.301875 -15.005 343.35375 -14.75 344.4375 C-11.27533188 348.78083515 -7.072542 348.96144323 -1.74316406 349.86279297 C0.85831926 350.3118518 3.44752588 350.81315678 6.0390625 351.31640625 C8.00490892 351.69167605 9.97105695 352.06536922 11.9375 352.4375 C12.88471924 352.61684082 13.83193848 352.79618164 14.80786133 352.98095703 C21.61161124 354.28140689 21.61161124 354.28140689 28.5 354.25 C30.90406384 351.87157423 30.90406384 351.87157423 32.5 349.25 C31.13908685 345.59408493 29.48610603 342.3734605 27.453125 339.046875 C26.855 338.06589844 26.256875 337.08492188 25.640625 336.07421875 C25.01671875 335.05972656 24.3928125 334.04523438 23.75 333 C23.1415625 332.00097656 22.533125 331.00195312 21.90625 329.97265625 C20.69673291 327.99556101 19.47486923 326.02596121 18.24023438 324.06445312 C17.12048568 322.25350153 16.04447735 320.41437235 15.02539062 318.54492188 C13.17225525 315.31663225 11.742598 312.89286641 8.38305664 311.15478516 C0.73297512 309.36746637 -2.04430914 314.52182811 -5.8125 320.375 Z M-88.5 324.25 C-88.5 347.35 -88.5 370.45 -88.5 394.25 C-84.00256033 390.39505171 -79.71257661 386.60400893 -75.56640625 382.4140625 C-75.0436058 381.88984711 -74.52080536 381.36563171 -73.98216248 380.82553101 C-72.33987655 379.1777213 -70.7011335 377.52644099 -69.0625 375.875 C-67.93838533 374.74586045 -66.81403826 373.61695222 -65.68945312 372.48828125 C-62.95694765 369.74484812 -60.22760991 366.99830015 -57.5 364.25 C-57.82524658 363.15510254 -58.15049316 362.06020508 -58.4855957 360.93212891 C-59.40327706 357.60108916 -59.74176098 355.04837487 -59.6875 351.625 C-59.68105469 350.72523438 -59.67460937 349.82546875 -59.66796875 348.8984375 C-59.50104331 346.26645026 -59.040432 343.82736201 -58.5 341.25 C-61.3523267 339.01847116 -64.20719509 336.79021646 -67.0625 334.5625 C-67.86236328 333.93666016 -68.66222656 333.31082031 -69.48632812 332.66601562 C-78.26185762 324.2707457 -78.26185762 324.2707457 -88.5 324.25 Z M-46.5 346.25 C-47.86393408 350.4873907 -47.98183468 353.94621204 -46.4375 358.125 C-43.95199065 360.85104251 -41.99470122 362.04029573 -38.5 363.25 C-33.9642798 363.25 -32.10633663 362.76406801 -28.625 359.8125 C-26.14157467 356.81778122 -25.57125031 355.86750269 -25.125 352 C-25.61927296 347.05727042 -27.03828301 345.71171699 -30.5 342.25 C-36.78158024 339.10920988 -42.24173004 341.1608481 -46.5 346.25 Z M41.125 358.375 C38.86299298 362.37701242 38.6836481 365.75190105 39.5 370.25 C41.64604954 373.85229744 43.6528 375.68861353 47.5 377.25 C52.13897872 377.57364968 55.6299216 376.83005227 59.5 374.25 C62.14429337 370.28355995 62.91877901 366.99895393 62.5 362.25 C60.2019374 357.28618479 57.57157696 355.19230607 52.5 353.25 C47.73566304 353.25 44.62616977 355.24237441 41.125 358.375 Z M-13.5 360.25 C-15.48 363.22 -17.46 366.19 -19.5 369.25 C-20.82 370.24 -22.14 371.23 -23.5 372.25 C-22.76687651 378.65804235 -21.26305231 384.78418812 -19.5625 391 C-19.19415039 392.56041016 -19.19415039 392.56041016 -18.81835938 394.15234375 C-17.28457207 399.82000175 -17.28457207 399.82000175 -13.1887207 403.75097656 C-10.51681546 404.7009653 -8.33334743 405.19794299 -5.5 405.25 C-2.58584709 404.03693082 -2.58584709 404.03693082 -0.5625 401.5 C0.26507813 400.64664063 1.09265625 399.79328125 1.9453125 398.9140625 C3.20988281 397.59535156 3.20988281 397.59535156 4.5 396.25 C6.24727023 394.76351638 8.01862769 393.30489822 9.8125 391.875 C16.12566637 386.76477221 22.3134411 381.5120175 28.5 376.25 C27.84 373.28 27.18 370.31 26.5 367.25 C6.7 363.785 6.7 363.785 -13.5 360.25 Z M-64.75 388.5625 C-66.18525954 390.07303539 -67.62403112 391.58024202 -69.06640625 393.08398438 C-72.58612026 396.76867042 -76.0546293 400.4957624 -79.5 404.25 C-77.72128937 407.66002588 -77.72128937 407.66002588 -73.66455078 408.14135742 C-72.01017356 408.39315278 -70.35350937 408.63019551 -68.6953125 408.85546875 C-67.81978729 408.98440018 -66.94426208 409.1133316 -66.04220581 409.24617004 C-63.23810009 409.65563734 -60.43171778 410.04638424 -57.625 410.4375 C-55.74071832 410.71174501 -53.85660103 410.98712201 -51.97265625 411.26367188 C-46.78482935 412.01497154 -46.78482935 412.01497154 -41.59423828 412.74682617 C-40.89855743 412.84436691 -40.20287659 412.94190765 -39.4861145 413.04240417 C-37.16976788 413.31930484 -37.16976788 413.31930484 -33.5 413.25 C-30.37957027 410.62354979 -30.37957027 410.62354979 -28.5 407.25 C-28.86425105 400.4885898 -30.57066535 393.96213954 -32.3125 387.4375 C-32.54130859 386.40173828 -32.77011719 385.36597656 -33.00585938 384.29882812 C-34.19455462 379.97400076 -35.32624678 377.19343229 -38.86767578 374.34692383 C-50.3534565 369.34637146 -57.77164473 380.93920257 -64.75 388.5625 Z M-96.5 407.25 C-97.16 407.91 -97.82 408.57 -98.5 409.25 C-98.1814823 411.35820797 -98.1814823 411.35820797 -97.5 413.25 C-95.84385343 413.63218767 -94.17542976 413.96395102 -92.5 414.25 C-91.20366379 413.18354885 -91.20366379 413.18354885 -91.4375 410.6875 C-91.458125 409.883125 -91.47875 409.07875 -91.5 408.25 C-93.89719432 407.57041397 -93.89719432 407.57041397 -96.5 407.25 Z M-21.5 417.25 C-23.22397707 419.63073024 -23.51876202 420.86537855 -23.375 423.8125 C-22.28716074 426.84290936 -21.33446998 427.75402973 -18.5 429.25 C-15.1858949 429.82996839 -13.94855005 429.54509872 -11.125 427.6875 C-9.17916058 425.24407073 -9.17916058 425.24407073 -9.4375 421.6875 C-10.18382292 418.12732393 -10.18382292 418.12732393 -12.9375 416.3125 C-16.59751079 414.79493455 -18.18580567 415.17862854 -21.5 417.25 Z " fill="#000000" transform="translate(366.5,33.75)"/>
<path d="M0 0 C10.69081369 7.98427858 17.4587375 19.50054603 20.00814319 32.61938137 C20.4655837 35.82158506 20.5963975 38.84127322 20.60017776 42.07427311 C20.60401891 43.31132435 20.60786005 44.54837559 20.6118176 45.82291323 C20.61103746 47.18761136 20.61015869 48.55230944 20.60919189 49.91700745 C20.61177713 51.3731009 20.61479073 52.82919364 20.6181953 54.28528541 C20.62625009 58.28279204 20.62805402 62.2802807 20.62879276 66.27779448 C20.63064599 70.59086628 20.63819473 74.90392881 20.64492798 79.21699524 C20.65850148 88.64696286 20.66453462 98.07692622 20.66893864 107.50690198 C20.67170298 113.39768326 20.67594071 119.28846291 20.68044281 125.17924309 C20.69263468 141.49635623 20.70293384 157.81346807 20.7063179 174.13058567 C20.70664725 175.6966657 20.70664725 175.6966657 20.70698325 177.2943837 C20.70720153 178.34090572 20.70741981 179.38742773 20.7076447 180.46566254 C20.70808816 182.58623922 20.70853473 184.7068159 20.70898438 186.82739258 C20.70931652 188.40520445 20.70931652 188.40520445 20.70965537 190.01489132 C20.71360173 207.05151104 20.73105116 224.08808795 20.7543439 241.12469114 C20.77807761 258.62544761 20.79052069 276.12618262 20.79168582 293.62695545 C20.7926015 303.44909207 20.79832665 313.27117292 20.81650543 323.09329414 C20.83193375 331.45868905 20.83701082 339.82401094 20.82876733 348.18941737 C20.82487036 352.45431079 20.8257436 356.71905731 20.83982468 360.9839325 C20.85262107 364.89563611 20.85131619 368.80708328 20.83923396 372.71878683 C20.83728684 374.12663813 20.8403094 375.53450795 20.84907833 376.94233329 C20.95121028 394.46215153 17.21820204 408.65995036 4.9375 421.5546875 C-5.59362858 431.31930989 -18.39791741 435.5063611 -32.6262207 435.31665039 C-46.6300337 434.68915713 -60.06504266 428.18826524 -69.53125 417.84375 C-76.53125 408.21708333 -76.53125 408.21708333 -76.53125 404.84375 C-77.19125 405.17375 -77.85125 405.50375 -78.53125 405.84375 C-97.29951092 407.16423895 -114.28405618 403.0141485 -128.90625 390.53125 C-139.18345886 380.66978583 -148.1329358 366.28822358 -148.59960938 351.70800781 C-148.68931367 346.41759 -148.63396503 341.13357381 -148.53125 335.84375 C-149.13710937 335.70839844 -149.74296875 335.57304687 -150.3671875 335.43359375 C-162.71597469 332.26090535 -172.73489673 323.86043226 -179.78125 313.34375 C-187.03701469 300.49747809 -188.02567891 286.12230789 -184.51953125 272.03125 C-182.49298295 265.49503098 -179.18212923 259.60829615 -175.53125 253.84375 C-176.11132812 253.59367187 -176.69140625 253.34359375 -177.2890625 253.0859375 C-187.11275169 247.64354523 -192.43361334 235.31795547 -195.40625 225.03125 C-198.68939422 210.0812183 -196.59731563 194.89118432 -188.53125 181.84375 C-184.17770196 175.66629447 -179.45060651 170.52990723 -173.53125 165.84375 C-173.82 165.11414063 -174.10875 164.38453125 -174.40625 163.6328125 C-179.27721605 149.93322049 -179.55138922 135.28282549 -173.53125 121.84375 C-167.79929124 110.96154117 -160.56646453 103.35211504 -149.53125 97.84375 C-147.23046875 97.1796875 -147.23046875 97.1796875 -145.53125 96.84375 C-145.69109375 96.18503906 -145.8509375 95.52632813 -146.015625 94.84765625 C-148.71603972 79.11569474 -145.80518951 63.42836657 -136.74609375 50.24609375 C-128.15804196 38.9262561 -115.81943605 30.11340362 -101.53125 27.84375 C-97.85870972 27.62593701 -94.20845925 27.65281383 -90.53125 27.71875 C-89.56574219 27.72777344 -88.60023438 27.73679688 -87.60546875 27.74609375 C-85.24712901 27.76944365 -82.88932714 27.80218953 -80.53125 27.84375 C-79.82162109 26.28527344 -79.82162109 26.28527344 -79.09765625 24.6953125 C-71.966065 9.4686979 -63.07882816 -1.13217615 -47.09375 -7.59375 C-30.74120204 -12.51870252 -13.94712466 -9.45839488 0 0 Z M-60.53125 17.84375 C-65.03482672 24.11478859 -65.03482672 24.11478859 -66.4609375 31.46484375 C-65.24000596 34.58899211 -63.8060317 35.4105637 -60.96875 37.15625 C-49.70676962 44.63215151 -41.50514898 54.83630978 -38.02734375 68.12109375 C-35.31322183 83.01670775 -35.31322183 83.01670775 -38.53125 87.84375 C-40.6953125 88.13671875 -40.6953125 88.13671875 -43.15625 88.03125 C-43.97351563 88.00417969 -44.79078125 87.97710937 -45.6328125 87.94921875 C-46.57253906 87.89701172 -46.57253906 87.89701172 -47.53125 87.84375 C-47.66080078 86.42835937 -47.66080078 86.42835937 -47.79296875 84.984375 C-49.28556006 71.34565071 -52.97074074 58.91547504 -63.95703125 49.83984375 C-75.07155366 41.76115447 -85.96175079 39.61015916 -99.53125 40.84375 C-110.56968184 43.21979621 -120.0218274 49.67211966 -126.53125 58.84375 C-132.9484974 69.68668526 -135.41559101 80.53487972 -132.87890625 93.06640625 C-130.14899858 102.14657125 -125.62750076 109.59259455 -118.09375 115.40625 C-115.67116141 117.35739071 -114.66517052 118.19802469 -114.02734375 121.2734375 C-114.03084486 123.52115067 -114.16939773 125.62740486 -114.53125 127.84375 C-118.98155854 128.40886855 -121.96201787 128.77279788 -125.88671875 126.44921875 C-131.77740862 121.47102817 -135.72798079 115.49641382 -139.53125 108.84375 C-147.48755928 110.04132596 -152.96295201 115.70914212 -157.9921875 121.69140625 C-164.39492411 130.64548715 -165.34272852 140.08880231 -164.53125 150.84375 C-162.17768976 161.45494444 -156.16903007 169.44754149 -147.53125 175.84375 C-145.8296875 176.8028125 -145.8296875 176.8028125 -144.09375 177.78125 C-141.53125 179.84375 -141.53125 179.84375 -141.03125 183.46875 C-141.53125 186.84375 -141.53125 186.84375 -143.53125 188.84375 C-148.45927467 189.4267839 -151.09122354 188.31903534 -155.15625 185.59375 C-156.07664062 184.99046875 -156.99703125 184.3871875 -157.9453125 183.765625 C-160.38368046 181.95342404 -162.45076328 180.05121478 -164.53125 177.84375 C-170.18522097 179.21440963 -173.24594849 183.33303854 -176.53125 187.84375 C-182.77229175 198.19634419 -185.49077614 208.94794665 -182.84375 220.96484375 C-179.63801694 231.4502623 -173.67471714 241.50006111 -164.109375 247.31640625 C-153.43261393 252.86508662 -142.26147888 254.58319031 -130.43359375 252.2265625 C-118.91208885 248.48000119 -110.65758209 241.11534483 -104.53125 230.84375 C-104.098125 230.12058594 -103.665 229.39742187 -103.21875 228.65234375 C-102.29532835 227.06521279 -101.40806799 225.45709511 -100.53125 223.84375 C-97.15625 223.71875 -97.15625 223.71875 -93.53125 223.84375 C-91.53125 225.84375 -91.53125 225.84375 -91.46875 229.78125 C-92.8824877 239.90491193 -100.88309284 248.57837966 -108.53125 254.84375 C-112.05834174 257.21989602 -115.65711619 259.09773627 -119.53125 260.84375 C-120.41039062 261.25753906 -121.28953125 261.67132813 -122.1953125 262.09765625 C-134.96544658 267.25966819 -150.65479131 266.24058955 -163.53125 261.84375 C-169.83953656 268.80389284 -173.52105412 277.50874137 -173.96875 286.96875 C-172.72951277 297.94485116 -169.2539063 307.67652799 -160.875 315.2421875 C-155.84103898 319.07297652 -151.62332532 321.32827087 -145.53125 322.84375 C-144.96277344 321.7815625 -144.39429688 320.719375 -143.80859375 319.625 C-134.5348535 302.53487928 -123.51904813 291.06840008 -104.53125 284.84375 C-97.74099474 282.8948852 -90.58000033 282.01160586 -83.53125 282.84375 C-81.53125 284.84375 -81.53125 284.84375 -81.21875 288.34375 C-81.321875 289.49875 -81.425 290.65375 -81.53125 291.84375 C-84.96938002 294.13583668 -86.89868541 294.2433449 -90.96875 294.65625 C-104.73179604 296.48659324 -116.68866838 302.64771527 -125.67578125 313.28515625 C-134.48906766 325.43821435 -136.8905272 338.18024297 -135.53125 352.84375 C-132.98986263 366.02244141 -125.26641439 376.98352992 -114.53125 384.84375 C-102.50027936 392.16285224 -90.08879539 394.95525908 -76.09375 392.15625 C-66.86674826 389.54483441 -59.25766606 385.55526506 -52.34375 378.90625 C-49.33058629 376.12581032 -48.94624683 375.85033725 -44.59375 375.78125 C-41.53125 376.84375 -41.53125 376.84375 -40.53125 378.84375 C-39.97058885 381.85730366 -39.90370501 383.89688883 -41.63671875 386.51171875 C-47.28621816 392.60759837 -55.64392247 398.21464082 -63.53125 400.84375 C-61.42526598 408.33169317 -55.21112081 414.08326955 -48.609375 417.8125 C-38.77101887 422.69469176 -28.21870743 423.72489906 -17.65625 420.21875 C-7.78741041 416.0886189 0.20722414 408.84843247 4.59170723 399.00987911 C8.39320735 389.62089562 7.73868234 379.68013947 7.69580078 369.74780273 C7.69523603 367.91398627 7.69555448 366.08016935 7.69668579 364.24635315 C7.69725779 359.28832654 7.68552817 354.3303974 7.67153788 349.37239337 C7.65900509 344.18341238 7.65785801 338.99442897 7.65548706 333.80543518 C7.64927977 323.9884073 7.63287913 314.17142416 7.61278808 304.35441595 C7.59040569 293.17425694 7.57942977 281.99409575 7.56939721 270.8139199 C7.54851223 247.8238385 7.51335088 224.83379676 7.46875 201.84375 C-7.22223081 201.75008328 -21.9131718 201.67966184 -36.6043911 201.63650131 C-43.42662954 201.61592358 -50.24868185 201.58789551 -57.07080078 201.54199219 C-63.65843905 201.49768793 -70.24593524 201.4745905 -76.83372879 201.46424103 C-79.34305483 201.45686848 -81.85237069 201.44247169 -84.36161423 201.42082977 C-87.88502317 201.39165815 -91.40764145 201.3877999 -94.93115234 201.38964844 C-96.47619949 201.36807678 -96.47619949 201.36807678 -98.05245972 201.34606934 C-106.60419229 201.39439921 -113.97251378 203.22461378 -120.40625 209.09375 C-126.91052484 216.33090088 -128.64384685 224.46392831 -130.53125 233.84375 C-136.234375 234.9609375 -136.234375 234.9609375 -138.90625 233.90625 C-140.92551759 231.34333344 -141.03003893 229.42322596 -140.84765625 226.2109375 C-139.29985729 214.63110824 -134.78969941 204.74344714 -125.60546875 197.30859375 C-116.60546926 190.95266191 -107.89588422 189.54693759 -97.08813477 189.52490234 C-95.38948021 189.50983391 -95.38948021 189.50983391 -93.6565094 189.49446106 C-89.92856332 189.4636705 -86.20068893 189.44660512 -82.47265625 189.4296875 C-79.88190598 189.41097257 -77.29116177 189.39139891 -74.70042419 189.3710022 C-68.58788737 189.32494684 -62.47535406 189.28752633 -56.36273569 189.25432932 C-48.71636979 189.21227022 -41.07010723 189.15693218 -33.42382812 189.1015625 C-19.79302562 189.0029149 -6.16219841 188.92426858 7.46875 188.84375 C7.46875 167.06375 7.46875 145.28375 7.46875 122.84375 C-9.14890832 122.59470441 -9.14890832 122.59470441 -25.7668457 122.36572266 C-27.8719197 122.33047079 -29.97698256 122.29454456 -32.08203125 122.2578125 C-33.14852905 122.24645264 -34.21502686 122.23509277 -35.31384277 122.22338867 C-48.55857859 121.97139714 -61.20793351 119.90622014 -71.40625 110.71875 C-78.08232592 103.3081425 -81.81391758 93.72699668 -82.53125 83.84375 C-82.28125 80.21875 -82.28125 80.21875 -81.53125 77.84375 C-78.31673731 76.23649365 -75.09512464 76.78626815 -71.53125 76.84375 C-71.36109375 77.84535156 -71.1909375 78.84695312 -71.015625 79.87890625 C-69.06348415 90.83595069 -66.58720066 97.26266447 -58.3359375 105.046875 C-50.52164803 110.0532443 -41.98626776 110.26287857 -32.9609375 110.13671875 C-31.79869659 110.13247391 -30.63645569 110.12822906 -29.43899536 110.12385559 C-25.76116847 110.10718926 -22.08390864 110.06955894 -18.40625 110.03125 C-15.89844547 110.01618762 -13.39063226 110.00250195 -10.8828125 109.99023438 C-4.7654346 109.95732526 1.35161717 109.90724716 7.46875 109.84375 C7.56195325 100.55031917 7.63276772 91.25705238 7.67599869 81.96325397 C7.69676075 77.64647576 7.72486657 73.33002028 7.77050781 69.01342773 C7.81437656 64.8377337 7.83797237 60.66234758 7.84825897 56.48644066 C7.85557754 54.90342559 7.8698661 53.32042493 7.89167023 51.73754311 C8.06536691 38.58978339 6.98473309 25.79825765 -2.53125 15.84375 C-10.60720375 7.70077589 -18.52844087 3.64114282 -30.03125 3.46875 C-42.63993701 3.43583288 -52.22895864 8.29244135 -60.53125 17.84375 Z " fill="#000000" transform="translate(225.53125,41.15625)"/>
<path d="M0 0 C10.85703782 0.21546492 19.14143448 4.36578666 26.92578125 11.82421875 C35.58162988 22.10976534 37.20031776 33.50965746 36.125 46.4375 C34.08195817 56.67732409 27.89760085 65.24689672 19.34375 71.15234375 C11.41625645 75.74414899 3.28030474 77.70131414 -5.875 76.4375 C-7.875 74.4375 -7.875 74.4375 -8.3125 70.5 C-8.1835206 66.7460206 -8.1835206 66.7460206 -6 64.5625 C-3.27631388 63.581973 -0.89681584 63.05162692 1.9375 62.5625 C8.35772209 61.40475503 12.90593861 58.71653603 17.4375 54.0625 C22.02877358 46.92051888 23.27012475 40.92870805 22.125 32.4375 C19.49332598 24.31754853 15.40302475 19.65878208 7.875 15.75 C4.00985214 14.39719825 0.29504973 13.61338855 -3.73828125 12.96484375 C-5.875 12.4375 -5.875 12.4375 -7.875 10.4375 C-8.140625 8.5625 -8.140625 8.5625 -8.125 6.4375 C-8.13015625 5.73625 -8.1353125 5.035 -8.140625 4.3125 C-7.4801886 -0.34940399 -3.87336592 0.0789535 0 0 Z " fill="#000000" transform="translate(177.875,260.5625)"/>
<path d="M0 0 C2.35668309 1.7531423 2.94239504 2.7261736 3.5546875 5.63671875 C3.66039062 6.64347656 3.76609375 7.65023437 3.875 8.6875 C5.11127335 17.01978134 8.54170391 22.51238537 15.1171875 27.75 C19.553676 30.69538656 23.97502895 31.99332306 29.25 32.375 C33 33 33 33 35.5625 35.1875 C37 38 37 38 36.9375 41.1875 C36 44 36 44 33 46 C23.84449633 47.49406701 14.16677869 44.54480851 6.6875 39.25 C-1.81368474 32.21575566 -7.74345824 23.9066185 -10 13 C-10.66115702 3.99173554 -10.66115702 3.99173554 -8 0 C-4.65044556 -1.11651815 -3.32740404 -0.99822121 0 0 Z " fill="#000000" transform="translate(136,156)"/>
<path d="M0 0 C1.04285156 -0.03738281 2.08570313 -0.07476562 3.16015625 -0.11328125 C5.9375 0.3125 5.9375 0.3125 7.8125 2.140625 C8.9375 4.3125 8.9375 4.3125 8.875 7.375 C7.77363718 10.82593683 6.97857425 11.47212575 3.9375 13.3125 C1.45703125 13.8671875 1.45703125 13.8671875 -1.25 14.1875 C-7.90620111 15.29686685 -13.3860701 17.1995708 -17.8828125 22.4296875 C-21.6637724 27.85454301 -23.85248438 32.90493352 -24.5 39.5 C-25.0625 43.3125 -25.0625 43.3125 -26.1875 45.3125 C-29.21593786 46.92766686 -31.70895493 46.6718084 -35.0625 46.3125 C-37.17773327 44.75416417 -37.95131974 43.84035583 -38.49609375 41.25390625 C-38.51591254 29.18426326 -34.31165261 19.72672457 -25.9921875 11.1875 C-18.41695098 4.00818176 -10.45311069 0.24610793 0 0 Z " fill="#000000" transform="translate(164.0625,365.6875)"/>
<path d="M0 0 C0.76313004 -0.00428513 1.52626007 -0.00857025 2.31251526 -0.01298523 C3.9255372 -0.01872457 5.53858502 -0.01923169 7.15161133 -0.01489258 C9.61649865 -0.01173465 12.08018312 -0.03518796 14.54492188 -0.06054688 C16.11327974 -0.06282016 17.68164082 -0.06352323 19.25 -0.0625 C19.98552597 -0.07170975 20.72105194 -0.08091949 21.47886658 -0.09040833 C24.61107549 -0.06216349 26.86855273 0.13027194 29.66040039 1.60473633 C31.19140625 3.30078125 31.19140625 3.30078125 31.62890625 6.80078125 C31.19140625 10.30078125 31.19140625 10.30078125 30.16577148 11.99243164 C27.05789411 14.05192402 23.7714676 13.74831983 20.1640625 13.734375 C19.37873642 13.73961685 18.59341034 13.7448587 17.7842865 13.7502594 C16.12418805 13.75667947 14.4640441 13.75534275 12.80395508 13.74682617 C10.2662635 13.73832266 7.73082811 13.7670636 5.19335938 13.79882812 C3.57942776 13.80044044 1.96549216 13.79986202 0.3515625 13.796875 C-0.40583725 13.80810898 -1.163237 13.81934296 -1.94358826 13.83091736 C-5.43024678 13.78489889 -7.45671288 13.55335496 -10.32250977 11.49633789 C-11.80859375 9.30078125 -11.80859375 9.30078125 -11.74609375 5.67578125 C-9.98965901 -0.64738382 -5.62922595 -0.00695616 0 0 Z " fill="#000000" transform="translate(192.80859375,188.69921875)"/>
<path d="M0 0 C1.18439415 0.00136711 1.18439415 0.00136711 2.39271545 0.00276184 C3.2040242 -0.00152328 4.01533295 -0.00580841 4.85122681 -0.01022339 C6.56857876 -0.01597091 8.28595506 -0.01646385 10.00331116 -0.01213074 C12.63288391 -0.0089734 15.26132901 -0.03241439 17.89076233 -0.05778503 C19.55807861 -0.06005823 21.22539793 -0.06076143 22.89271545 -0.05973816 C23.68028732 -0.06894791 24.46785919 -0.07815765 25.27929688 -0.08764648 C30.69188979 -0.0417201 30.69188979 -0.0417201 33.20936584 1.63874817 C34.77100938 4.23919927 34.51741356 6.3439413 34.2091217 9.30354309 C32.2091217 12.30354309 32.2091217 12.30354309 29.2091217 13.30354309 C24.52762509 13.57794451 19.84712581 13.61682304 15.15834045 13.65364075 C13.61228895 13.67020558 12.06631419 13.6975033 10.52064514 13.735672 C8.28359049 13.79057197 6.04832259 13.81232926 3.8106842 13.82698059 C2.78075851 13.86098465 2.78075851 13.86098465 1.73002625 13.89567566 C-2.11544185 13.87883072 -3.70515954 13.37068781 -6.7698822 10.970047 C-8.7908783 8.30354309 -8.7908783 8.30354309 -8.7283783 5.11604309 C-7.04067337 0.05292832 -5.0183545 0.06544372 0 0 Z " fill="#000000" transform="translate(189.79087829589844,365.6964569091797)"/>
</svg>
